<svg id="Capa_2" data-name="Capa 2" xmlns="http://www.w3.org/2000/svg" viewBox="0 0 1948.61 525.68"><defs><style>.cls-1{fill:#4db2e6;}.cls-2{fill:#242755;}.cls-3{fill:#fff;}.cls-4{font-size:219px;fill:#c6c6c6;font-family:Bauhaus93, "Bauhaus 93";}</style></defs><path class="cls-1" d="M423.92,214V338.4a45.73,45.73,0,1,1-23.21,0V214H379.6L312.47,407.7,345,477.12H479.22L512.16,412,440.78,214Z" transform="translate(-93.81 -41.19)"/><path class="cls-2" d="M462.62,206.08l-5.53-15.34h-94l-5.41,15.61L290.54,400.1,287.45,409l4,8.54,28.44,60.66a23.2,23.2,0,0,0-16.18,22.11v43.34a23.21,23.21,0,0,0,23.2,23.21H497.72a23.21,23.21,0,0,0,23.21-23.21V500.32a23.22,23.22,0,0,0-16.24-22.14l28.19-55.76,4.51-8.93L534,404.08Zm35.1,337.58H326.91V500.32H497.72Zm-18.5-66.54H345L312.47,407.7,379.6,214h21.11V338.4a45.73,45.73,0,1,0,23.21,0V214h16.86l71.38,198Zm-44.38-94.49a22.52,22.52,0,1,1-22.52-22.52A22.52,22.52,0,0,1,434.84,382.63Z" transform="translate(-93.81 -41.19)"/><circle class="cls-1" cx="412.32" cy="382.63" r="22.52" transform="translate(-119.86 -11.04) rotate(-4.06)"/><rect class="cls-3" x="233.1" y="459.14" width="170.8" height="43.34"/><rect class="cls-3" x="23.21" y="23.21" width="45.04" height="45.04"/><rect class="cls-3" x="68.25" y="273.89" width="45.04" height="45.04"/><rect class="cls-3" x="523.72" y="278.99" width="45.04" height="45.04"/><rect class="cls-3" x="295.98" y="23.21" width="45.04" height="45.04"/><rect class="cls-3" x="568.76" y="23.21" width="45.04" height="45.04"/><path class="cls-2" d="M707.61,41.19H639.36V75.31H458V41.19H366.59V75.31H185.27V41.19H93.81v91.45h91.46V98.52H294.65a200.34,200.34,0,0,0-46.08,31.16c-41.54,37.56-66.1,92-73.33,162.19H138.85v91.45h91.46V291.87H198.57c6.9-63.05,28.81-111.63,65.37-144.8,33.21-30.13,72.87-41.95,102.65-46.42v32H458v-30c48.23,8.15,86.9,28.14,115.3,59.73,37.78,42,50.19,96.71,54,134.59h-33v91.45h91.45V297H650.87c-3.78-41.27-17.14-102-60.14-150a199.71,199.71,0,0,0-66.26-48.49H639.36v34.12h91.46V41.19ZM207.1,360.11h-45v-45h45Zm455.47,5.1h-45v-45h45Zm45-255.78h-45v-45h45Zm-317.81,0v-45h45v45Zm-272.78,0v-45h45v45Z" transform="translate(-93.81 -41.19)"/><text class="cls-4" transform="translate(909.81 186.01)">Abolfazl<tspan x="-275.52" y="262.8">Tbae Bordbar</tspan></text></svg>