<svg id="Capa_2" data-name="Capa 2" xmlns="http://www.w3.org/2000/svg" viewBox="0 0 2090.09 1724.83"><defs><style>.cls-1{fill:#4db2e6;}.cls-2{fill:#242755;}.cls-3{fill:#fff;}</style></defs><path class="cls-1" d="M1102,617.18v408.33c64.35,16.9,112,75.55,112,145.13,0,82.73-67.31,150-150,150s-150-67.3-150-150c0-69.58,47.61-128.23,112-145.13V617.18H956.61L736.35,1252.89l106.76,227.76h440.38l108.08-213.82L1157.36,617.18Z" transform="translate(-18.91 -50.32)"/><path class="cls-2" d="M1229,591.36,1210.86,541H902.41l-17.75,51.21L664.4,1228l-10.13,29.24,13.13,28,93.29,199a76.16,76.16,0,0,0-53.1,72.57V1699a76.15,76.15,0,0,0,76.15,76.15h560.43a76.15,76.15,0,0,0,76.15-76.15V1556.8a76.17,76.17,0,0,0-53.28-72.64l92.49-183,14.81-29.29L1463.2,1241ZM1344.17,1699H783.74V1556.8h560.43Zm-60.68-218.35H843.11L736.35,1252.89,956.61,617.18h69.27v408.33c-64.35,16.9-112,75.55-112,145.13,0,82.73,67.31,150,150,150s150-67.3,150-150c0-69.58-47.62-128.23-112-145.13V617.18h55.33l234.21,649.65Zm-145.65-310a73.89,73.89,0,1,1-73.88-73.89A73.89,73.89,0,0,1,1137.84,1170.64Z" transform="translate(-18.91 -50.32)"/><circle class="cls-1" cx="1063.96" cy="1170.64" r="73.89" transform="translate(-99.1 27.92) rotate(-4.06)"/><rect class="cls-3" x="764.83" y="1506.49" width="560.43" height="142.2"/><rect class="cls-3" x="76.15" y="76.15" width="147.77" height="147.77"/><rect class="cls-3" x="223.92" y="898.66" width="147.77" height="147.77"/><rect class="cls-3" x="1718.39" y="915.39" width="147.77" height="147.77"/><rect class="cls-3" x="971.16" y="76.15" width="147.78" height="147.77"/><rect class="cls-3" x="1866.16" y="76.15" width="147.77" height="147.77"/><path class="cls-2" d="M2032.85,50.32H1808.93v112H1214v-112H913.92v112H319v-112H18.91V350.39H319v-112H677.87A657.33,657.33,0,0,0,526.68,340.68C390.39,463.93,309.8,642.55,286.1,872.83H166.69V1172.9H466.76V872.83H362.62C385.29,666,457.15,506.56,577.12,397.74c109-98.86,239.08-137.63,336.8-152.3v105H1214V252c158.23,26.72,285.12,92.32,378.31,196,124,137.86,164.68,317.31,177.21,441.59H1661.15v300.07h300.08V889.56H1846.69c-12.4-135.38-56.24-334.8-197.33-492q-90.79-101.19-217.4-159.1h377v112H2109V50.32ZM390.61,1096.75H242.84V949H390.61Zm1494.47,16.73H1737.31V965.71h147.77Zm147.77-839.24H1885.08V126.46h147.77Zm-1042.78,0V126.46h147.77V274.24Zm-895,0V126.46H242.84V274.24Z" transform="translate(-18.91 -50.32)"/></svg>